<svg xmlns="http://www.w3.org/2000/svg" width="26.107" height="23.056" viewBox="0 0 26.107 23.056">
  <g id="thanh-toan-check" transform="translate(0 0)">
    <path id="Path_4445" data-name="Path 4445" d="M53.683,21.044a1.336,1.336,0,0,0-1.845,0L39.7,33.178l-5.07-5.071a1.336,1.336,0,0,0-1.845,0,1.3,1.3,0,0,0,0,1.845l5.993,5.993a1.3,1.3,0,0,0,1.845,0L53.683,22.889a1.3,1.3,0,0,0,0-1.845Z" transform="translate(-27.958 -19.363)" fill="#dfdfdf"/>
    <path id="Path_4446" data-name="Path 4446" d="M11.745,29.17a2.377,2.377,0,0,1-1.692-.7L4.06,22.476a2.392,2.392,0,0,1,0-3.384,2.424,2.424,0,0,1,3.384,0l4.3,4.3,11.31-11.31v-.967H0V34.172H23.056V18.85l-9.619,9.619A2.377,2.377,0,0,1,11.745,29.17Z" transform="translate(0 -11.117)" fill="#dfdfdf"/>
  </g>
</svg>
