<svg xmlns="http://www.w3.org/2000/svg" width="36.582" height="23.601" viewBox="0 0 36.582 23.601">
  <g id="Creditcard" transform="translate(-8 -96)" opacity="0.57">
    <path id="Path_4455" data-name="Path 4455" d="M95.862,106.36v14.161a2.36,2.36,0,0,1-2.36,2.36h-1.18v-11.8H64v-4.72A2.36,2.36,0,0,1,66.36,104H93.5A2.36,2.36,0,0,1,95.862,106.36Z" transform="translate(-51.87 -7.41)" fill="#57a4ff"/>
    <path id="Path_4456" data-name="Path 4456" d="M19.54,152v3.54H16v-1.18A2.36,2.36,0,0,1,18.36,152Z" transform="translate(-7.41 -51.87)" fill="#57a4ff"/>
    <path id="Path_4457" data-name="Path 4457" d="M16,248v9.44a2.36,2.36,0,0,0,2.36,2.36H45.5a2.36,2.36,0,0,0,2.36-2.36V248Zm2.36,2.36h11.8v2.36H18.36Z" transform="translate(-7.41 -140.789)" fill="#57a4ff"/>
    <g id="Group_431" data-name="Group 431" transform="translate(8 96)">
      <path id="Path_4458" data-name="Path 4458" d="M40.59,369.18H45.9a.59.59,0,1,0,0-1.18H40.59a.59.59,0,1,0,0,1.18Z" transform="translate(-37.64 -347.939)" fill="#004fac"/>
      <path id="Path_4459" data-name="Path 4459" d="M137.18,368h-.59a.59.59,0,1,0,0,1.18h.59a.59.59,0,1,0,0-1.18Z" transform="translate(-126.56 -347.939)" fill="#004fac"/>
      <path id="Path_4460" data-name="Path 4460" d="M40.59,275.54h11.8a.59.59,0,0,0,.59-.59v-2.36a.59.59,0,0,0-.59-.59H40.59a.59.59,0,0,0-.59.59v2.36A.59.59,0,0,0,40.59,275.54Zm.59-2.36H51.8v1.18H41.18Z" transform="translate(-37.64 -259.019)" fill="#004fac"/>
      <path id="Path_4461" data-name="Path 4461" d="M41.632,96H14.49a2.953,2.953,0,0,0-2.95,2.95v.59h-.59A2.953,2.953,0,0,0,8,102.49v14.161a2.953,2.953,0,0,0,2.95,2.95H38.092a2.953,2.953,0,0,0,2.95-2.95v-.59h.59a2.953,2.953,0,0,0,2.95-2.95V98.95A2.953,2.953,0,0,0,41.632,96ZM9.18,102.49a1.772,1.772,0,0,1,1.77-1.77H38.092a1.772,1.772,0,0,1,1.77,1.77v.59H9.18Zm0,1.77H39.862v2.36H9.18Zm30.682,12.391a1.772,1.772,0,0,1-1.77,1.77H10.95a1.772,1.772,0,0,1-1.77-1.77V107.8H39.862Zm3.54-3.54a1.772,1.772,0,0,1-1.77,1.77h-.59V102.49a2.953,2.953,0,0,0-2.95-2.95H12.72v-.59a1.772,1.772,0,0,1,1.77-1.77H41.632a1.772,1.772,0,0,1,1.77,1.77Z" transform="translate(-8 -96)" fill="#004fac"/>
    </g>
  </g>
</svg>
