<svg id="logout" xmlns="http://www.w3.org/2000/svg" width="21.726" height="21.726" viewBox="0 0 21.726 21.726">
  <g id="Group_45" data-name="Group 45">
    <g id="Group_44" data-name="Group 44">
      <path id="Path_4374" data-name="Path 4374" d="M21.364,0H11.95a.362.362,0,0,0-.362.362V5.794a.362.362,0,1,0,.724,0V.724H21V21H.362a.362.362,0,0,0,0,.724h21a.362.362,0,0,0,.362-.362v-21A.362.362,0,0,0,21.364,0Z" fill="#8c8c8c"/>
    </g>
  </g>
  <g id="Group_47" data-name="Group 47" transform="translate(0.002 5.086)">
    <g id="Group_46" data-name="Group 46">
      <path id="Path_4375" data-name="Path 4375" d="M9.972,120.848l2.4-1.219a1.284,1.284,0,0,0,.565-1.707,1.259,1.259,0,0,0-.735-.642,1.245,1.245,0,0,0-.962.072l-1.376.7L9.4,117.26a2.48,2.48,0,1,0-2.888-1.514L3.547,117a1.27,1.27,0,0,0-.771.881l-.6,2.433a1.278,1.278,0,0,0,.918,1.544,1.242,1.242,0,0,0,.952-.139,1.267,1.267,0,0,0,.582-.789l.441-1.8.861-.357-.465,2.593-1.834,2.055-1.5-1.327a1.255,1.255,0,0,0-1.772.1l-.014.016a1.285,1.285,0,0,0,.119,1.794l2.4,2.129a1.285,1.285,0,0,0,1.728-.058l2.3-2.334,1.84,1.118,1.337,2.71a1.256,1.256,0,0,0,1.131.708,1.243,1.243,0,0,0,.566-.136,1.283,1.283,0,0,0,.564-1.707l-1.5-3.042a1.269,1.269,0,0,0-.479-.523l-2.225-1.352.238-1.083A1.255,1.255,0,0,0,9.972,120.848Zm-1.783-1.835a.362.362,0,0,0-.31.282L7.37,121.62a.362.362,0,0,0,.165.387l2.446,1.487a.55.55,0,0,1,.205.225l1.5,3.042a.557.557,0,0,1-.242.741h0a.543.543,0,0,1-.721-.245l-1.385-2.8A.359.359,0,0,0,9.2,124.3L7.03,122.981a.362.362,0,0,0-.446.055l-2.505,2.538a.543.543,0,0,1-.733.025l-2.4-2.129a.559.559,0,0,1-.051-.78.531.531,0,0,1,.748-.059l.009.008L3.418,124.2a.362.362,0,0,0,.51-.03l2.143-2.4a.362.362,0,0,0,.086-.177l.6-3.346a.362.362,0,0,0-.495-.4l-1.642.681a.362.362,0,0,0-.213.248l-.486,1.971a.546.546,0,0,1-.251.341.518.518,0,0,1-.4.059.551.551,0,0,1-.393-.668l.6-2.434a.553.553,0,0,1,.339-.383L6.7,116.452l.442.192a.362.362,0,0,0,.408-.579,1.774,1.774,0,0,1-.486-1.222A1.74,1.74,0,1,1,8.8,116.61a.362.362,0,0,0-.312.547l.9,1.521a.365.365,0,0,0,.34.176l.1-.008a.365.365,0,0,0,.135-.038l1.6-.809a.52.52,0,0,1,.406-.03.54.54,0,0,1,.314.274.557.557,0,0,1-.242.742l-2.4,1.217a.543.543,0,0,1-.72-.248l-.367-.743A.356.356,0,0,0,8.189,119.013Z" transform="translate(-0.036 -112.367)" fill="#8c8c8c"/>
    </g>
  </g>
  <g id="Group_49" data-name="Group 49" transform="translate(13.76 9.419)">
    <g id="Group_48" data-name="Group 48">
      <path id="Path_4376" data-name="Path 4376" d="M309.326,209.648l-1.448-1.448a.362.362,0,0,0-.512.512l.83.83h-3.833a.362.362,0,1,0,0,.724H308.2l-.83.83a.362.362,0,0,0,.5.521l.009-.009,1.448-1.448A.362.362,0,0,0,309.326,209.648Z" transform="translate(-304 -208.098)" fill="#8c8c8c"/>
    </g>
  </g>
  <g id="Group_51" data-name="Group 51" transform="translate(11.587 13.398)">
    <g id="Group_50" data-name="Group 50">
      <path id="Path_4377" data-name="Path 4377" d="M256.362,296a.362.362,0,0,0-.362.362V298.9a.362.362,0,1,0,.724,0v-2.535A.362.362,0,0,0,256.362,296Z" transform="translate(-256 -296)" fill="#8c8c8c"/>
    </g>
  </g>
  <g id="Group_53" data-name="Group 53" transform="translate(11.587 8.328)">
    <g id="Group_52" data-name="Group 52">
      <path id="Path_4378" data-name="Path 4378" d="M256.362,184a.362.362,0,0,0-.362.362v.362a.362.362,0,1,0,.724,0v-.362A.362.362,0,0,0,256.362,184Z" transform="translate(-256 -184)" fill="#8c8c8c"/>
    </g>
  </g>
</svg>
