<svg xmlns="http://www.w3.org/2000/svg" width="25" height="25" viewBox="0 0 25 25">
  <g id="surface1" opacity="0.99">
    <path id="Path_4429" data-name="Path 4429" d="M20.833,4.414V2.083A2.086,2.086,0,0,0,18.75,0H2.083A2.086,2.086,0,0,0,0,2.083V11.25a2.079,2.079,0,0,0,1.868,2.062l1.566,4.066a2.084,2.084,0,0,0,2.693,1.2l9.781-3.768a6.023,6.023,0,0,0,.519,5.348l.239.383v4.047a.417.417,0,0,0,.417.417h7.5A.417.417,0,0,0,25,24.583V10.83a5.453,5.453,0,0,0-1.6-3.841Zm0,2.492L22.1,10.189A1.25,1.25,0,0,1,21.38,11.8l-.723.279a2.084,2.084,0,0,0,.176-.833Zm-20,4.344V2.083A1.25,1.25,0,0,1,2.083.833H18.75A1.25,1.25,0,0,1,20,2.083V4.732h0l0,.009V11.25a1.267,1.267,0,0,1-.028.216L16.155,7.649a2.223,2.223,0,0,0-3.208,3.074L14.574,12.5H2.083A1.25,1.25,0,0,1,.833,11.25Zm5.338,2.083L3.208,14.474,2.77,13.333Zm-.343,4.462a1.25,1.25,0,0,1-1.616-.717l-.7-1.828,4.974-1.917v0h6.855l.542.59Zm18.339,6.372H17.5V20.833h6.667Zm0-4.167H17.315l-.181-.289a5.2,5.2,0,0,1-.106-5.336.417.417,0,0,0-.055-.488l-3.414-3.725A1.39,1.39,0,0,1,15.566,8.24l6.64,6.638.589-.589-1.542-1.542.428-.167a2.084,2.084,0,0,0,1.195-2.692l-1.41-3.662,1.35,1.353a4.614,4.614,0,0,1,1.352,3.251Zm0,0" fill="#fff"/>
    <path id="Path_4430" data-name="Path 4430" d="M66.741,68.231a1.49,1.49,0,0,0,1.49-1.49V63.99a1.49,1.49,0,0,0-1.49-1.49H63.99a1.49,1.49,0,0,0-1.49,1.49v2.751a1.49,1.49,0,0,0,1.49,1.49Zm-3.095-1.49v-.8h1.146V64.792H63.646v-.8a.344.344,0,0,1,.344-.344h2.751a.344.344,0,0,1,.344.344v.8H65.939v1.146h1.146v.8a.344.344,0,0,1-.344.344H63.99A.344.344,0,0,1,63.646,66.741Zm0,0" transform="translate(-60.208 -60.208)" fill="#fff"/>
    <path id="Path_4431" data-name="Path 4431" d="M78.125,265.625h2.292v1.146H78.125Zm0,0" transform="translate(-75.26 -258.633)" fill="#fff"/>
    <path id="Path_4432" data-name="Path 4432" d="M78.125,359.375h2.292v1.146H78.125Zm0,0" transform="translate(-75.26 -349.916)" fill="#fff"/>
    <path id="Path_4433" data-name="Path 4433" d="M359.375,359.375h2.292v1.146h-2.292Zm0,0" transform="translate(-350.049 -349.916)" fill="#fff"/>
    <path id="Path_4434" data-name="Path 4434" d="M171.875,265.625h2.292v1.146h-2.292Zm0,0" transform="translate(-167.415 -258.633)" fill="#fff"/>
    <path id="Path_4435" data-name="Path 4435" d="M265.625,265.625h2.292v1.146h-2.292Zm0,0" transform="translate(-258.732 -258.633)" fill="#fff"/>
    <path id="Path_4436" data-name="Path 4436" d="M359.375,265.625h2.292v1.146h-2.292Zm0,0" transform="translate(-350.049 -258.633)" fill="#fff"/>
    <path id="Path_4437" data-name="Path 4437" d="M656.25,78.125H657.4v1.719H656.25Zm0,0" transform="translate(-638.977 -75.26)" fill="#fff"/>
    <path id="Path_4438" data-name="Path 4438" d="M593.75,78.125H594.9v1.719H593.75Zm0,0" transform="translate(-578.122 -75.26)" fill="#fff"/>
    <path id="Path_4439" data-name="Path 4439" d="M531.25,78.125H532.4v1.719H531.25Zm0,0" transform="translate(-517.267 -75.26)" fill="#fff"/>
    <path id="Path_4440" data-name="Path 4440" d="M468.75,78.125H469.9v1.719H468.75Zm0,0" transform="translate(-456.412 -75.26)" fill="#fff"/>
    <path id="Path_4441" data-name="Path 4441" d="M687.5,812.5h1.146v1.146H687.5Zm0,0" transform="translate(-669.404 -792.085)" fill="#fff"/>
  </g>
</svg>
