<svg xmlns="http://www.w3.org/2000/svg" width="42.447" height="27.246" viewBox="0 0 42.447 27.246">
  <g id="thanh-toan-money" transform="matrix(0.899, -0.438, 0.438, 0.899, 0.001, 12.994)">
    <path id="Path_4448" data-name="Path 4448" d="M456,119.4h1.16v2.32H456Zm0,0" transform="translate(-422.94 -110.743)" fill="#8c8c8c"/>
    <path id="Path_4450" data-name="Path 4450" d="M424,79.4h1.16v3.48H424Zm0,0" transform="translate(-393.26 -73.643)" fill="#8c8c8c"/>
    <path id="Path_4451" data-name="Path 4451" d="M23.78,13.875v-1.74a1.709,1.709,0,0,0-1.74-1.74H19.024a.548.548,0,0,1-.58-.58.213.213,0,0,1,.058-.174l.348-.986a.565.565,0,0,1,.638-.406l4.814.986h5.336V8.075a1.729,1.729,0,0,0-.7-1.392L20.474.361A1.868,1.868,0,0,0,19.14.013L6.322,2.275H0v10.44H6.264L12.876,15.5a1.473,1.473,0,0,0,.7.116H22.04a1.709,1.709,0,0,0,1.74-1.74ZM1.16,3.435H5.8v8.12H1.16ZM13.34,14.4,6.96,11.729V3.319L19.314,1.173a.625.625,0,0,1,.464.116l8.41,6.322a.528.528,0,0,1,.232.464h-4l-4.756-.928a1.706,1.706,0,0,0-1.972,1.16l-.348.986a1.73,1.73,0,0,0,1.1,2.2,1.7,1.7,0,0,0,.522.116H22.04a.548.548,0,0,1,.58.58v1.74a.548.548,0,0,1-.58.58H13.572c-.058-.058-.174-.058-.232-.116Zm0,0" transform="translate(0 0)" fill="#8c8c8c"/>
    <path id="Path_4452" data-name="Path 4452" d="M40,71.4h1.16v3.48H40Zm0,0" transform="translate(-37.1 -66.223)" fill="#8c8c8c"/>
    <path id="Path_4453" data-name="Path 4453" d="M279.54,144.558a6.38,6.38,0,1,1-6.38,6.38H272a7.54,7.54,0,1,0,7.54-7.54Zm0,0" transform="translate(-252.28 -133.003)" fill="#6b95ee"/>
    <path id="Path_4454" data-name="Path 4454" d="M344,182.358v.58a1.709,1.709,0,0,0,1.74,1.74v1.16h1.16v-1.16a1.709,1.709,0,0,0,1.74-1.74v-1.16a1.709,1.709,0,0,0-1.74-1.74h-1.16a.548.548,0,0,1-.58-.58V178.3a.548.548,0,0,1,.58-.58h1.16a.548.548,0,0,1,.58.58v.58h1.16v-.58a1.709,1.709,0,0,0-1.74-1.74V175.4h-1.16v1.16A1.709,1.709,0,0,0,344,178.3v1.16a1.709,1.709,0,0,0,1.74,1.74h1.16a.548.548,0,0,1,.58.58v1.16a.548.548,0,0,1-.58.58h-1.16a.548.548,0,0,1-.58-.58v-.58Zm0,0" transform="translate(-319.06 -162.683)" fill="#6b95ee"/>
  </g>
</svg>
