<svg xmlns="http://www.w3.org/2000/svg" width="16.236" height="16.281" viewBox="0 0 16.236 16.281">
  <g id="_149314" data-name="149314" transform="translate(0 0)">
    <path id="Path_164" data-name="Path 164" d="M29.276,19.073h-2a1.118,1.118,0,0,0-.8-.8V15.433a.28.28,0,0,0-.56,0v2.839a1.118,1.118,0,1,0,1.36,1.36h2a.28.28,0,0,0,0-.56Zm-3.08.84a.56.56,0,1,1,.56-.56A.561.561,0,0,1,26.2,19.912Z" transform="translate(-18.078 -10.911)" fill="#8c8c8c"/>
    <path id="Path_165" data-name="Path 165" d="M14.109,2.734l1.147,1.147a.28.28,0,0,0,.4,0A2.274,2.274,0,0,0,12.436.665a.28.28,0,0,0,0,.4l1.277,1.277-.476.476a7.541,7.541,0,0,0-10.078,0l-.476-.476L3.96,1.061a.28.28,0,0,0,0-.4A2.274,2.274,0,0,0,.745,3.881a.28.28,0,0,0,.4,0L2.287,2.734l.469.469A7.547,7.547,0,0,0,4.368,14.956L3.52,15.8a.28.28,0,1,0,.4.4l.966-.966a7.542,7.542,0,0,0,6.631,0l.966.966a.28.28,0,0,0,.4-.4l-.848-.848A7.547,7.547,0,0,0,13.639,3.2Zm1.146-1.673a1.717,1.717,0,0,1,.182,2.21L13.045.879A1.716,1.716,0,0,1,15.255,1.061ZM.959,3.271A1.714,1.714,0,0,1,3.35.879ZM8.2,15.441a7,7,0,1,1,7-7A7.007,7.007,0,0,1,8.2,15.441Z" transform="translate(-0.08 -0.001)" fill="#8c8c8c"/>
    <path id="Path_166" data-name="Path 166" d="M28.356,7.872a.28.28,0,0,0,.28-.28v-.28a.28.28,0,0,0-.56,0v.28A.28.28,0,0,0,28.356,7.872Z" transform="translate(-20.238 -5.063)" fill="#8c8c8c"/>
    <path id="Path_167" data-name="Path 167" d="M28.356,50.032a.28.28,0,0,0-.28.28v.28a.28.28,0,0,0,.56,0v-.28A.28.28,0,0,0,28.356,50.032Z" transform="translate(-20.238 -36.025)" fill="#8c8c8c"/>
    <path id="Path_168" data-name="Path 168" d="M49.356,29.592h.28a.28.28,0,0,0,0-.56h-.28a.28.28,0,0,0,0,.56Z" transform="translate(-35.358 -20.904)" fill="#8c8c8c"/>
    <path id="Path_169" data-name="Path 169" d="M6.636,29.032h-.28a.28.28,0,1,0,0,.56h.28a.28.28,0,1,0,0-.56Z" transform="translate(-4.397 -20.904)" fill="#8c8c8c"/>
    <path id="Path_170" data-name="Path 170" d="M43.206,13.557l-.2.2a.28.28,0,1,0,.4.4l.2-.2a.28.28,0,0,0-.4-.4Z" transform="translate(-30.93 -9.702)" fill="#8c8c8c"/>
    <path id="Path_171" data-name="Path 171" d="M12.8,43.963l-.2.2a.28.28,0,1,0,.4.4l.2-.2a.28.28,0,0,0-.4-.4Z" transform="translate(-9.037 -31.596)" fill="#8c8c8c"/>
    <path id="Path_172" data-name="Path 172" d="M43.4,43.963a.28.28,0,0,0-.4.4l.2.2a.28.28,0,0,0,.4-.4Z" transform="translate(-30.93 -31.596)" fill="#8c8c8c"/>
    <path id="Path_173" data-name="Path 173" d="M13,13.557a.28.28,0,0,0-.4.4l.2.2a.28.28,0,0,0,.4-.4Z" transform="translate(-9.037 -9.702)" fill="#8c8c8c"/>
  </g>
</svg>
