<svg xmlns="http://www.w3.org/2000/svg" width="32.609" height="25" viewBox="0 0 32.609 25">
  <g id="Tracking" transform="translate(-2 -9)">
    <path id="Path_4425" data-name="Path 4425" d="M34.449,28.09,27.7,21.469A1.634,1.634,0,0,0,26.549,21H17.217v1.067h2.717v8h1.087v-8h5.528a.549.549,0,0,1,.385.156l.928.91H25.37A1.077,1.077,0,0,0,24.283,24.2V29a1.077,1.077,0,0,0,1.087,1.067h8.152v4.267a.538.538,0,0,1-.543.533h-1.13a3.81,3.81,0,0,0-7.522,0h-7.7a3.81,3.81,0,0,0-7.522,0H7.978a.538.538,0,0,1-.543-.533v-4.8H6.348v4.8a1.615,1.615,0,0,0,1.63,1.6h1.13a3.7,3.7,0,0,0,1.1,2.133H2v1.067H28.087a3.785,3.785,0,0,0,3.761-3.2h1.13a1.615,1.615,0,0,0,1.63-1.6V28.467a.528.528,0,0,0-.159-.377Zm-24.3,7.31a2.718,2.718,0,1,1,2.717,2.667A2.692,2.692,0,0,1,10.152,35.4Zm5.374,2.667a3.7,3.7,0,0,0,1.1-2.133h7.7a3.7,3.7,0,0,0,1.1,2.133Zm12.56,0A2.667,2.667,0,1,1,30.8,35.4a2.692,2.692,0,0,1-2.717,2.667ZM25.37,29V24.2h3.579l4.573,4.487V29Z" transform="translate(0 -5.133)" fill="#fff"/>
    <rect id="Rectangle_805" data-name="Rectangle 805" width="0.746" height="1.493" transform="translate(12.621 29.323)" fill="#fff"/>
    <rect id="Rectangle_806" data-name="Rectangle 806" width="1.493" height="1.493" transform="translate(27.459 29.323)" fill="#fff"/>
    <rect id="Rectangle_807" data-name="Rectangle 807" width="2.985" height="0.746" transform="translate(2 28.11)" fill="#fff"/>
    <rect id="Rectangle_808" data-name="Rectangle 808" width="1.493" height="0.746" transform="translate(3.493 25.987)" fill="#fff"/>
    <rect id="Rectangle_809" data-name="Rectangle 809" width="1.493" height="0.746" transform="translate(3.493 23.864)" fill="#fff"/>
    <path id="Path_4426" data-name="Path 4426" d="M9.439,23.878A7.439,7.439,0,1,0,2,16.439a7.439,7.439,0,0,0,7.439,7.439Zm0-13.733a6.294,6.294,0,1,1-6.294,6.294,6.294,6.294,0,0,1,6.294-6.294Z" transform="translate(0)" fill="#fff"/>
    <path id="Path_4427" data-name="Path 4427" d="M12.005,23.3a.572.572,0,0,0,.4-.168c.369-.369,3.6-3.672,3.6-6.127a4.005,4.005,0,1,0-8.011,0c0,2.455,3.232,5.758,3.6,6.127A.572.572,0,0,0,12.005,23.3Zm0-9.155a2.865,2.865,0,0,1,2.861,2.861c0,1.468-1.8,3.737-2.861,4.893-1.06-1.156-2.861-3.425-2.861-4.893A2.864,2.864,0,0,1,12.005,14.144Z" transform="translate(-2.567 -1.711)" fill="#fff"/>
    <path id="Path_4428" data-name="Path 4428" d="M15.433,18.717a1.717,1.717,0,1,0-1.717,1.717A1.717,1.717,0,0,0,15.433,18.717Zm-2.289,0a.572.572,0,1,1,.572.572A.572.572,0,0,1,13.144,18.717Z" transform="translate(-4.597 -3.687)" fill="#fff"/>
    <rect id="Rectangle_810" data-name="Rectangle 810" width="2.239" height="0.746" transform="translate(22.482 25.987)" fill="#fff"/>
  </g>
</svg>
