<svg xmlns="http://www.w3.org/2000/svg" width="11.621" height="41.096" viewBox="0 0 11.621 41.096">
  <g id="up" transform="translate(-129.832)">
    <path id="Path_4416" data-name="Path 4416" d="M137.074.417a.847.847,0,0,0-1.459,0,60.1,60.1,0,0,0-5.766,13.407c-.139.695.625,1.389,1.25.973a15.881,15.881,0,0,0,3.612-3.543c-.278,9.726-1.6,19.8.695,29.385.139.695,1.32.556,1.25-.139-1.25-9.934-.278-19.8-.139-29.733,1.181,1.042,2.362,2.084,3.473,3.126a.855.855,0,0,0,1.459-.625A33.641,33.641,0,0,0,137.074.417Zm-.764,8.267a.873.873,0,0,0-1.6.486v.139c-.834.834-1.6,1.667-2.5,2.5a63.681,63.681,0,0,1,4.1-9.17,30.8,30.8,0,0,1,2.987,8.475c-.764-.695-1.6-1.389-2.362-2.154A.514.514,0,0,0,136.309,8.684Z" fill="#acacac"/>
  </g>
</svg>
