<svg id="danhmuc" xmlns="http://www.w3.org/2000/svg" width="22.921" height="22.921" viewBox="0 0 22.921 22.921">
  <g id="Group_382" data-name="Group 382">
    <g id="Group_381" data-name="Group 381">
      <path id="Path_4412" data-name="Path 4412" d="M8.155,0H1.668A1.67,1.67,0,0,0,0,1.668V8.155A1.67,1.67,0,0,0,1.668,9.823H8.155A1.67,1.67,0,0,0,9.823,8.155V1.668A1.67,1.67,0,0,0,8.155,0Zm0,9H1.668a.85.85,0,0,1-.849-.849V1.668A.85.85,0,0,1,1.668.819H8.155A.85.85,0,0,1,9,1.668V8.155H9A.85.85,0,0,1,8.155,9Z" fill="#dfdfdf"/>
    </g>
  </g>
  <g id="Group_384" data-name="Group 384" transform="translate(13.098)">
    <g id="Group_383" data-name="Group 383">
      <path id="Path_4413" data-name="Path 4413" d="M117.382,0H110.9a1.67,1.67,0,0,0-1.668,1.668V8.155A1.67,1.67,0,0,0,110.9,9.823h6.487a1.67,1.67,0,0,0,1.668-1.668V1.668A1.67,1.67,0,0,0,117.382,0Zm.849,8.155a.85.85,0,0,1-.849.849h-6.487a.85.85,0,0,1-.849-.849V1.668a.85.85,0,0,1,.849-.849h6.487a.85.85,0,0,1,.849.849Z" transform="translate(-109.227)" fill="#dfdfdf"/>
    </g>
  </g>
  <g id="Group_386" data-name="Group 386" transform="translate(0 13.098)">
    <g id="Group_385" data-name="Group 385">
      <path id="Path_4414" data-name="Path 4414" d="M8.155,109.227H1.668A1.67,1.67,0,0,0,0,110.895v6.488a1.67,1.67,0,0,0,1.668,1.668H8.155a1.67,1.67,0,0,0,1.668-1.668v-6.487A1.67,1.67,0,0,0,8.155,109.227Zm0,9H1.668a.85.85,0,0,1-.849-.849v-6.487a.85.85,0,0,1,.849-.849H8.155a.85.85,0,0,1,.849.849v6.487H9A.85.85,0,0,1,8.155,118.232Z" transform="translate(0 -109.227)" fill="#dfdfdf"/>
    </g>
  </g>
  <g id="Group_388" data-name="Group 388" transform="translate(13.098 13.098)">
    <g id="Group_387" data-name="Group 387">
      <path id="Path_4415" data-name="Path 4415" d="M117.382,109.227H110.9a1.67,1.67,0,0,0-1.668,1.668v6.488a1.67,1.67,0,0,0,1.668,1.668h6.487a1.67,1.67,0,0,0,1.668-1.668v-6.487A1.67,1.67,0,0,0,117.382,109.227Zm.849,8.155a.85.85,0,0,1-.849.849h-6.487a.85.85,0,0,1-.849-.849v-6.487a.85.85,0,0,1,.849-.849h6.487a.85.85,0,0,1,.849.849Z" transform="translate(-109.227 -109.227)" fill="#dfdfdf"/>
    </g>
  </g>
</svg>
