<svg xmlns="http://www.w3.org/2000/svg" width="21.087" height="25.546" viewBox="0 0 21.087 25.546">
  <path id="notify" d="M80.787,47.013a1.509,1.509,0,0,0-.366-1,1.37,1.37,0,0,0-.183-.154,3.112,3.112,0,0,1-.989-1.093,15.489,15.489,0,0,1-1.6-7.16,7.8,7.8,0,0,0-2.2-5.3,7.562,7.562,0,0,0-3.693-2.159,2.3,2.3,0,1,0-3.024,0,7.561,7.561,0,0,0-3.693,2.16,7.8,7.8,0,0,0-2.2,5.305A14.732,14.732,0,0,1,61.085,45a2.787,2.787,0,0,1-.809.865A1.3,1.3,0,0,0,60.11,46a1.439,1.439,0,0,0-.41,1.008,1.42,1.42,0,0,0,1.4,1.433h6.63a2.81,2.81,0,0,0-.073.624,2.584,2.584,0,0,0,5.168,0,2.806,2.806,0,0,0-.073-.621h6.63A1.42,1.42,0,0,0,80.787,47.013ZM70.244,26.848a1.557,1.557,0,1,1-1.55,1.557A1.557,1.557,0,0,1,70.244,26.848ZM60.452,47.013a.688.688,0,0,1,.191-.476.545.545,0,0,1,.069-.057,3.532,3.532,0,0,0,1.023-1.1,15.491,15.491,0,0,0,1.855-7.769,7.046,7.046,0,0,1,1.992-4.786,6.209,6.209,0,0,1,9.321,0A7.043,7.043,0,0,1,76.9,37.607a16.252,16.252,0,0,0,1.687,7.509,3.855,3.855,0,0,0,1.222,1.359.615.615,0,0,1,.083.069.8.8,0,0,1,.147.47.676.676,0,0,1-.651.681H61.1A.676.676,0,0,1,60.452,47.013Zm11.624,2.053a1.832,1.832,0,1,1-3.56-.621h3.456a1.8,1.8,0,0,1,.1.621Z" transform="translate(-59.7 -26.107)"/>
</svg>
