<svg xmlns="http://www.w3.org/2000/svg" width="25.491" height="25.491" viewBox="0 0 25.491 25.491">
  <path id="user" d="M25.491,12.746A12.746,12.746,0,1,0,4.137,22.135l-.012.011.413.349c.027.023.056.041.083.063.22.182.447.355.679.522.075.054.15.108.227.161q.371.256.761.486l.171.1c.284.162.574.314.871.454l.066.03a12.631,12.631,0,0,0,3.083.976l.085.015c.336.058.675.1,1.018.135l.126.01c.342.028.688.046,1.038.046s.69-.018,1.03-.045l.129-.01q.511-.047,1.009-.133L15,25.287a12.63,12.63,0,0,0,3.039-.952l.106-.048q.429-.2.839-.434l.2-.117c.249-.147.495-.3.733-.463.086-.058.17-.12.254-.181.2-.146.4-.3.6-.456.043-.035.089-.065.132-.1l.424-.354-.013-.011A12.713,12.713,0,0,0,25.491,12.746Zm-24.564,0a11.819,11.819,0,1,1,19.657,8.835,3.473,3.473,0,0,0-.414-.249L16.245,19.37a1.027,1.027,0,0,1-.571-.924V17.076c.091-.112.187-.239.286-.379a9.445,9.445,0,0,0,1.212-2.374,1.682,1.682,0,0,0,.966-1.524V11.155a1.686,1.686,0,0,0-.411-1.1V7.894a3.738,3.738,0,0,0-.873-2.718,5.217,5.217,0,0,0-4.11-1.469,5.218,5.218,0,0,0-4.11,1.468,3.738,3.738,0,0,0-.873,2.718v2.163a1.689,1.689,0,0,0-.411,1.1V12.8a1.686,1.686,0,0,0,.621,1.307,8.709,8.709,0,0,0,1.434,2.961v1.341a1.034,1.034,0,0,1-.539.907l-3.665,2a3.349,3.349,0,0,0-.349.221A11.79,11.79,0,0,1,.927,12.746Zm18.752,9.562q-.243.177-.495.341c-.077.05-.153.1-.232.149-.219.135-.441.264-.668.385l-.151.077a11.81,11.81,0,0,1-1.617.684l-.059.02q-.436.145-.882.256h0c-.3.074-.6.136-.91.186l-.025,0c-.288.047-.578.081-.869.106l-.155.012c-.288.022-.577.036-.868.036s-.587-.014-.878-.036l-.151-.012c-.294-.026-.586-.061-.876-.108L10.8,24.4a11.775,11.775,0,0,1-1.8-.45l-.055-.019q-.437-.149-.863-.33l-.006,0c-.268-.115-.531-.243-.79-.378l-.1-.052c-.237-.127-.469-.263-.7-.406l-.2-.129c-.21-.138-.418-.281-.62-.432L5.6,22.153l.044-.025,3.665-2a1.96,1.96,0,0,0,1.022-1.721V16.739l-.107-.129a7.739,7.739,0,0,1-1.391-2.881l-.042-.184-.158-.1a.768.768,0,0,1-.356-.645V11.155a.757.757,0,0,1,.258-.567l.153-.138V7.868l0-.061a2.792,2.792,0,0,1,.647-2.021,4.367,4.367,0,0,1,3.413-1.152,4.378,4.378,0,0,1,3.4,1.143,2.838,2.838,0,0,1,.655,2.031l0,2.642.153.138a.758.758,0,0,1,.258.567V12.8a.774.774,0,0,1-.547.73l-.23.071-.074.229A8.574,8.574,0,0,1,15.2,16.161c-.121.171-.24.324-.341.44l-.115.131v1.714A1.949,1.949,0,0,0,15.831,20.2l3.924,1.962.074.038C19.78,22.237,19.729,22.272,19.679,22.308Z" fill="#212121"/>
</svg>
