<svg xmlns="http://www.w3.org/2000/svg" width="33.942" height="33.914" viewBox="0 0 33.942 33.914">
  <g id="qr" transform="translate(0 -0.332)">
    <path id="Path_4664" data-name="Path 4664" d="M77.289,76.721v9.2a.666.666,0,0,0,.666.666h9.2a.666.666,0,0,0,.666-.666V84.18a.666.666,0,1,0-1.331,0v1.08H78.62V77.386h7.874v1.6a.666.666,0,1,0,1.331,0V76.721a.666.666,0,0,0-.666-.666h-9.2a.666.666,0,0,0-.666.666Zm0,0" transform="translate(-73.19 -71.707)"/>
    <path id="Path_4665" data-name="Path 4665" d="M138.709,136.8a.665.665,0,0,0-.665.665v2.761a.665.665,0,0,0,.665.666h2.761a.666.666,0,0,0,.666-.666V137.47a.666.666,0,0,0-.666-.665Zm2.1,2.762h-1.43v-1.43h1.43Zm0,0" transform="translate(-130.722 -129.235)"/>
    <path id="Path_4666" data-name="Path 4666" d="M87.16,364.344h-9.2a.666.666,0,0,0-.666.665v9.205a.666.666,0,0,0,.666.665h9.2a.666.666,0,0,0,.666-.665v-9.205A.666.666,0,0,0,87.16,364.344Zm-.665,9.2H78.62v-7.874h7.874Zm0,0" transform="translate(-73.19 -344.707)"/>
    <path id="Path_4667" data-name="Path 4667" d="M367.115,86.59h9.205a.666.666,0,0,0,.665-.666v-9.2a.666.666,0,0,0-.665-.666h-9.205a.666.666,0,0,0-.666.666v9.2A.666.666,0,0,0,367.115,86.59Zm.665-9.2h7.874v7.874H367.78Zm0,0" transform="translate(-347.015 -71.707)"/>
    <path id="Path_4668" data-name="Path 4668" d="M376.986,374.215v-9.205a.666.666,0,0,0-.665-.665h-9.205a.666.666,0,0,0-.666.665v9.205a.666.666,0,0,0,.666.665h9.205A.666.666,0,0,0,376.986,374.215Zm-1.331-.666H367.78v-7.874h7.874Zm0,0" transform="translate(-347.015 -344.707)"/>
    <path id="Path_4669" data-name="Path 4669" d="M150.82,88.357a.666.666,0,0,0,0-1.331H139.151V75.33a.666.666,0,1,0-1.331,0v11.7h-8.834a.666.666,0,0,0,0,1.331h8.834V99.9a.666.666,0,0,0,1.331,0V88.357Zm0,0" transform="translate(-121.515 -70.39)"/>
    <path id="Path_4670" data-name="Path 4670" d="M138.709,430.12h2.761a.666.666,0,0,0,.666-.666v-2.762a.665.665,0,0,0-.666-.665h-2.761a.665.665,0,0,0-.665.665v2.762A.665.665,0,0,0,138.709,430.12Zm.666-2.762h1.43v1.431h-1.43Zm0,0" transform="translate(-130.722 -403.119)"/>
    <path id="Path_4671" data-name="Path 4671" d="M430.622,136.8h-2.762a.666.666,0,0,0-.666.665v2.761a.666.666,0,0,0,.666.666h2.762a.666.666,0,0,0,.666-.666V137.47A.665.665,0,0,0,430.622,136.8Zm-.666,2.762h-1.43v-1.43h1.43Zm0,0" transform="translate(-404.539 -129.235)"/>
    <path id="Path_4672" data-name="Path 4672" d="M427.861,430.12h2.762a.666.666,0,0,0,.666-.666v-2.762a.665.665,0,0,0-.666-.665h-2.762a.666.666,0,0,0-.666.665v2.762A.666.666,0,0,0,427.861,430.12Zm.666-2.762h1.43v1.431h-1.43Zm0,0" transform="translate(-404.539 -403.119)"/>
    <path id="Path_4673" data-name="Path 4673" d="M77.5,307.475l-.036.008a.666.666,0,1,0,.305,1.3l.036-.008a.666.666,0,0,0-.305-1.3Zm0,0" transform="translate(-72.871 -290.837)"/>
    <path id="Path_4674" data-name="Path 4674" d="M251.07,167.473l-.036.008a.666.666,0,0,0,.152,1.314.657.657,0,0,0,.152-.018l.036-.008a.666.666,0,0,0-.3-1.3Zm0,0" transform="translate(-237.235 -158.26)"/>
    <path id="Path_4675" data-name="Path 4675" d="M.665,5.784a.665.665,0,0,0,.666-.665V1.663H4.66a.666.666,0,1,0,0-1.331H.665A.666.666,0,0,0,0,1V5.118a.666.666,0,0,0,.665.665Zm0,0" transform="translate(0 0)"/>
    <path id="Path_4676" data-name="Path 4676" d="M544.231.332h-3.995a.666.666,0,1,0,0,1.331h3.329V5.118a.665.665,0,0,0,1.331,0V1a.666.666,0,0,0-.665-.666Zm0,0" transform="translate(-510.955 0)"/>
    <path id="Path_4677" data-name="Path 4677" d="M4.66,541.124H1.331v-3.455a.666.666,0,0,0-1.331,0v4.121a.666.666,0,0,0,.665.666H4.66a.666.666,0,1,0,0-1.331Zm0,0" transform="translate(0 -508.21)"/>
    <path id="Path_4678" data-name="Path 4678" d="M544.231,537a.665.665,0,0,0-.666.665v3.455h-3.329a.666.666,0,1,0,0,1.331h3.995a.666.666,0,0,0,.665-.666v-4.12A.666.666,0,0,0,544.231,537Zm0,0" transform="translate(-510.955 -508.21)"/>
  </g>
</svg>
