<?xml version="1.0" encoding="iso-8859-1"?>
<!-- Generator: Adobe Illustrator 19.0.0, SVG Export Plug-In . SVG Version: 6.00 Build 0)  -->
<svg version="1.1" id="Layer_1" xmlns="http://www.w3.org/2000/svg" xmlns:xlink="http://www.w3.org/1999/xlink" x="0px" y="0px"
	 viewBox="0 0 512 512" style="enable-background:new 0 0 512 512;" xml:space="preserve">
<g>
	<g>
		<path d="M105.714,0v374.195L256,512l150.286-137.805V0H105.714z M376.286,360.999h-0.001L256.001,471.294L135.717,360.999V30.001
			h240.57V360.999z"/>
	</g>
</g>
<g>
	<g>
		<circle cx="256.002" cy="400.928" r="17.131"/>
	</g>
</g>
<g>
	<g>
		<path d="M356.094,167.223l-69.163-10.05L256,94.499l-30.93,62.673l-69.163,10.05l50.047,48.783l-11.816,68.882L256,252.366
			l61.862,32.521l-11.816-68.882L356.094,167.223z M278.016,230.045l-22.015-11.574l-22.015,11.574l4.204-24.515l-17.812-17.36
			l24.615-3.577l11.008-22.304l11.008,22.304l24.614,3.577l-17.811,17.36L278.016,230.045z"/>
	</g>
</g>
<g>
</g>
<g>
</g>
<g>
</g>
<g>
</g>
<g>
</g>
<g>
</g>
<g>
</g>
<g>
</g>
<g>
</g>
<g>
</g>
<g>
</g>
<g>
</g>
<g>
</g>
<g>
</g>
<g>
</g>
</svg>
