<svg xmlns="http://www.w3.org/2000/svg" width="28" height="28.001" viewBox="0 0 28 28.001">
  <g id="logout" transform="translate(-0.014)">
    <g id="Group_147" data-name="Group 147" transform="translate(0.014)">
      <g id="Group_146" data-name="Group 146">
        <path id="Path_4404" data-name="Path 4404" d="M310.257,153.56a1.179,1.179,0,0,0-.253-.38l-3.5-3.5a1.167,1.167,0,1,0-1.65,1.65l1.509,1.509h-6.517a1.167,1.167,0,1,0,0,2.333h6.517l-1.509,1.509a1.167,1.167,0,1,0,1.65,1.65l3.5-3.5a1.155,1.155,0,0,0,.253-.38A1.168,1.168,0,0,0,310.257,153.56Z" transform="translate(-282.346 -141.172)" fill="#8d8a8a"/>
        <path id="Path_4405" data-name="Path 4405" d="M19.848,16.334A1.166,1.166,0,0,0,18.681,17.5v5.834H14.014V4.667a1.168,1.168,0,0,0-.832-1.118L9.131,2.333h9.551V8.167a1.167,1.167,0,0,0,2.333,0v-7A1.166,1.166,0,0,0,19.848,0H1.181a1.04,1.04,0,0,0-.12.022A1.152,1.152,0,0,0,.566.195C.54.211.509.212.484.231.475.238.471.251.462.258a1.156,1.156,0,0,0-.31.369.953.953,0,0,0-.033.1A1.107,1.107,0,0,0,.027,1a.726.726,0,0,0,0,.1c0,.023-.016.044-.016.068V24.5a1.166,1.166,0,0,0,.938,1.143l11.667,2.333a1.086,1.086,0,0,0,.229.023,1.167,1.167,0,0,0,1.167-1.167V25.668h5.834A1.166,1.166,0,0,0,21.015,24.5v-7A1.166,1.166,0,0,0,19.848,16.334Z" transform="translate(-0.014)" fill="#8d8a8a"/>
      </g>
    </g>
  </g>
</svg>
