<?xml version="1.0" encoding="iso-8859-1"?>
<!-- Generator: Adobe Illustrator 19.0.0, SVG Export Plug-In . SVG Version: 6.00 Build 0)  -->
<svg version="1.1" id="Layer_1" xmlns="http://www.w3.org/2000/svg" xmlns:xlink="http://www.w3.org/1999/xlink" x="0px" y="0px"
	 viewBox="0 0 460 460" style="enable-background:new 0 0 460 460;" xml:space="preserve">
<g>
	<path style="fill:#C2001B;" d="M230,0C102.974,0,0,102.975,0,230c0,103.511,68.378,191.051,162.429,219.914l294.833-255.515
		C440.15,84.278,344.917,0,230,0z"/>
	<path style="fill:#940030;" d="M457.255,194.402L360,97.147l-14.903,17.755l-66.626-66.626L213,41l-37,26l-76,320.47l62.436,62.437
		C183.801,456.463,206.487,460,230,460c127.026,0,230-102.975,230-230C460,217.892,459.058,206.005,457.255,194.402z"/>
	<path style="fill:#FFAD9E;" d="M229.6,28l-10,10l10,10c27.1,0,49.147,22.047,49.147,49.147v73.844h20V97.147
		C298.747,59.019,267.728,28,229.6,28z"/>
	<path style="fill:#FFEDB5;" d="M229.6,48c-27.1,0-49.147,22.047-49.147,49.147v73.844h-20V97.147
		C160.453,59.019,191.472,28,229.6,28V48z"/>
	<polygon style="fill:#FFEDB5;" points="230,97.147 257.647,242.309 230,387.471 100,387.471 100,97.147 	"/>
	<rect x="230" y="97.147" style="fill:#FFAD9E;" width="130" height="290.324"/>
	<path style="fill:#940030;" d="M339.999,242.309c0,60.751-49.248,109.999-109.999,109.999l-55-109.999l55-109.999
		C290.751,132.31,339.999,181.558,339.999,242.309z"/>
	<path style="fill:#FF0F27;" d="M120.001,242.309c0,60.751,49.248,109.999,109.999,109.999V132.31
		C169.249,132.31,120.001,181.558,120.001,242.309z"/>
	<path style="fill:#71E2F0;" d="M230,332.308l-9.474-94.736l99.473,4.737C319.999,291.936,279.627,332.308,230,332.308z"/>
	<path style="fill:#C2FBFF;" d="M230,152.31c49.627,0,89.999,40.372,89.999,89.999h-99.473L230,152.31z"/>
	<path style="fill:#C2FBFF;" d="M230,242.309v89.999c-49.627,0-89.999-40.372-89.999-89.999l45-14.21L230,242.309z"/>
	<path style="fill:#FFFFFF;" d="M230,152.31v89.999h-89.999C140.001,192.681,180.373,152.31,230,152.31z"/>
	<rect x="220" y="172.31" style="fill:#FF0F27;" width="20" height="70"/>
	<rect x="230" y="232.31" style="fill:#C2001B;" width="70" height="20"/>
	<circle style="fill:#61A2B3;" cx="230" cy="242.309" r="15"/>
</g>
<g>
</g>
<g>
</g>
<g>
</g>
<g>
</g>
<g>
</g>
<g>
</g>
<g>
</g>
<g>
</g>
<g>
</g>
<g>
</g>
<g>
</g>
<g>
</g>
<g>
</g>
<g>
</g>
<g>
</g>
</svg>
