<svg xmlns="http://www.w3.org/2000/svg" width="27.5" height="27.813" viewBox="0 0 27.5 27.813">
  <path id="Icon" d="M24.567,5.72a.239.239,0,0,0-.1-.283l-.684-.4a.236.236,0,0,0-.292.053L22.45,6.371a.278.278,0,0,1-.3.077l-.786-.33a.282.282,0,0,1-.16-.271L21.359,4.2a.238.238,0,0,0-.169-.246l-.762-.207a.237.237,0,0,0-.268.128L19.482,5.38a.28.28,0,0,1-.272.153l-.845-.112A.279.279,0,0,1,18.14,5.2l-.269-1.633a.236.236,0,0,0-.227-.194h-.789a.238.238,0,0,0-.227.194L16.359,5.2a.282.282,0,0,1-.224.22l-.844.113a.277.277,0,0,1-.272-.153l-.679-1.509a.235.235,0,0,0-.269-.128l-.762.207a.24.24,0,0,0-.169.247l.158,1.65a.284.284,0,0,1-.16.27l-.787.329a.276.276,0,0,1-.3-.077L11.009,5.092a.234.234,0,0,0-.292-.053l-.684.4a.241.241,0,0,0-.1.282l.574,1.55a.286.286,0,0,1-.086.3L9.745,8.1a.276.276,0,0,1-.312.005L8.1,7.141a.233.233,0,0,0-.3.025l-.558.564a.242.242,0,0,0-.025.3l.952,1.348a.287.287,0,0,1,0,.315l-.518.684a.276.276,0,0,1-.3.086L5.819,9.881a.234.234,0,0,0-.279.1l-.395.691a.242.242,0,0,0,.053.3l1.265,1.053a.286.286,0,0,1,.076.306l-.327.8a.278.278,0,0,1-.268.162l-1.63-.16a.236.236,0,0,0-.244.171l-.2.771a.241.241,0,0,0,.126.271l1.49.685a.285.285,0,0,1,.152.276l-.111.854a.28.28,0,0,1-.217.226l-1.615.272a.237.237,0,0,0-.192.229v.8a.239.239,0,0,0,.192.229l1.616.272a.283.283,0,0,1,.217.226l.112.853a.282.282,0,0,1-.152.275l-1.492.686a.239.239,0,0,0-.127.272l.2.771a.238.238,0,0,0,.244.171l1.631-.16a.28.28,0,0,1,.267.162l.325.8a.284.284,0,0,1-.076.306L5.2,23.593a.24.24,0,0,0-.053.3l.395.691a.236.236,0,0,0,.279.1L7.351,24.1a.278.278,0,0,1,.3.087l.518.684a.284.284,0,0,1,0,.315l-.951,1.347a.24.24,0,0,0,.025.3l.558.564a.235.235,0,0,0,.3.025l1.332-.963a.278.278,0,0,1,.312,0l.676.523a.283.283,0,0,1,.085.3l-.575,1.552a.239.239,0,0,0,.1.283l.684.4a.236.236,0,0,0,.292-.053l1.041-1.279a.278.278,0,0,1,.3-.077l.786.33a.282.282,0,0,1,.16.271l-.158,1.648a.238.238,0,0,0,.169.246l.762.207a.237.237,0,0,0,.268-.128l.678-1.506a.28.28,0,0,1,.272-.153l.845.112a.279.279,0,0,1,.224.219l.269,1.633a.236.236,0,0,0,.227.194h.789a.238.238,0,0,0,.227-.194l.269-1.634a.282.282,0,0,1,.224-.22l.844-.113a.277.277,0,0,1,.272.153l.679,1.509a.235.235,0,0,0,.268.128l.762-.207a.24.24,0,0,0,.169-.247l-.158-1.65a.284.284,0,0,1,.16-.27l.787-.329a.276.276,0,0,1,.3.077l1.041,1.279a.234.234,0,0,0,.292.053l.684-.4a.241.241,0,0,0,.1-.282l-.574-1.55a.286.286,0,0,1,.086-.3l.676-.524a.276.276,0,0,1,.312-.005l1.332.962a.233.233,0,0,0,.3-.025l.558-.564a.242.242,0,0,0,.025-.3l-.952-1.348a.287.287,0,0,1,0-.315l.518-.684a.276.276,0,0,1,.3-.086l1.535.581a.234.234,0,0,0,.279-.1l.395-.691a.242.242,0,0,0-.053-.3L28.037,22.54a.286.286,0,0,1-.076-.306l.327-.8a.278.278,0,0,1,.268-.162l1.63.16a.236.236,0,0,0,.244-.171l.2-.771a.241.241,0,0,0-.126-.271l-1.49-.685a.285.285,0,0,1-.152-.276l.111-.854a.28.28,0,0,1,.217-.226l1.615-.272A.237.237,0,0,0,31,17.68v-.8a.239.239,0,0,0-.192-.229l-1.616-.272a.283.283,0,0,1-.217-.226l-.112-.853a.282.282,0,0,1,.152-.275l1.492-.686a.239.239,0,0,0,.127-.272l-.2-.771a.238.238,0,0,0-.244-.171l-1.631.16a.28.28,0,0,1-.267-.162l-.325-.8a.284.284,0,0,1,.076-.306L29.3,10.969a.24.24,0,0,0,.053-.3l-.395-.691a.236.236,0,0,0-.279-.1l-1.533.581a.279.279,0,0,1-.3-.087l-.518-.684a.284.284,0,0,1,0-.315l.951-1.347a.24.24,0,0,0-.025-.3l-.558-.564a.235.235,0,0,0-.3-.025L25.066,8.1a.278.278,0,0,1-.312,0l-.676-.523a.283.283,0,0,1-.085-.3l.575-1.552Zm1.755,9.013a9.491,9.491,0,0,0-4.37-5.7,9.305,9.305,0,0,0-7.031-.985c-.443.114-.183.051-.183.051a.972.972,0,0,0-.552,1.428l.014.026,2.765,5.1a2.837,2.837,0,0,0,2.327,1.36l6.129-.129h0a.917.917,0,0,0,.9-1.148ZM14.712,26.471a9.3,9.3,0,0,0,7.086-.85,9.485,9.485,0,0,0,4.456-5.588c.132-.442.051-.185.051-.185a.966.966,0,0,0-.926-1.214H25.35L19.6,18.4A2.836,2.836,0,0,0,17.25,19.72L14.2,25.1h0a.923.923,0,0,0,.509,1.372ZM10.645,24.1a9.613,9.613,0,0,1-.258-13.328c.313-.337.133-.137.133-.137a.951.951,0,0,1,1.5.2l.015.025,3.072,4.919a2.9,2.9,0,0,1,.048,2.718l-3.083,5.359h0a.9.9,0,0,1-1.43.24Z" transform="translate(-3.5 -3.375)" fill="#8e8e93" fill-rule="evenodd"/>
</svg>
